<?xml version="1.0" encoding="iso-8859-1"?>
<!-- Generator: Adobe Illustrator 19.0.0, SVG Export Plug-In . SVG Version: 6.00 Build 0)  -->
<svg xmlns="http://www.w3.org/2000/svg" xmlns:xlink="http://www.w3.org/1999/xlink" version="1.1" id="Layer_1" x="0px" y="0px" viewBox="0 0 512 512" style="enable-background:new 0 0 512 512;" xml:space="preserve" width="512" height="512">
<g>
	<g>
		<path style="fill:#4B5562;" d="M426.107,7.5H85.893c-16.619,0-30.091,13.472-30.091,30.091v436.818    c0,16.619,13.472,30.091,30.091,30.091h340.214c16.619,0,30.091-13.472,30.091-30.091V37.591    C456.198,20.972,442.726,7.5,426.107,7.5z"/>
		<path style="fill:#A0D9D6;" d="M398.964,47.5H113.035c-9.518,0-17.234,7.716-17.234,17.234v102.532    c0,9.518,7.716,17.234,17.234,17.234h285.929c9.518,0,17.234-7.716,17.234-17.234V64.734    C416.198,55.216,408.482,47.5,398.964,47.5z"/>
		<path style="fill:#7AB9AE;" d="M125.801,167.266V64.734c0-9.518,7.716-17.234,17.234-17.234h-30    c-9.518,0-17.234,7.716-17.234,17.234v102.532c0,9.518,7.716,17.234,17.234,17.234h30    C133.517,184.5,125.801,176.784,125.801,167.266z"/>
		<path style="fill:#809CE4;" d="M216.249,224.881h-91.864c-7.697,0-13.936,6.239-13.936,13.936v70.925    c0,7.697,6.239,13.936,13.936,13.936h91.864c7.697,0,13.936-6.239,13.936-13.936v-70.925    C230.185,231.12,223.945,224.881,216.249,224.881z"/>
		<path style="fill:#FF9BCA;" d="M387.615,224.881h-91.864c-7.697,0-13.936,6.239-13.936,13.936v70.925    c0,7.697,6.239,13.936,13.936,13.936h91.864c7.697,0,13.936-6.239,13.936-13.936v-70.925    C401.551,231.12,395.312,224.881,387.615,224.881z"/>
		<path style="fill:#7AB9AE;" d="M216.249,368.111h-91.864c-7.697,0-13.936,6.24-13.936,13.936v70.926    c0,7.697,6.239,13.936,13.936,13.936h91.864c7.697,0,13.936-6.239,13.936-13.936v-70.926    C230.185,374.351,223.945,368.111,216.249,368.111z"/>
		<path style="fill:#F2BE63;" d="M387.615,368.111h-91.864c-7.697,0-13.936,6.24-13.936,13.936v70.926    c0,7.697,6.239,13.936,13.936,13.936h91.864c7.697,0,13.936-6.239,13.936-13.936v-70.926    C401.551,374.351,395.312,368.111,387.615,368.111z"/>
	</g>
	<g>
		<path d="M384.055,512h42.052c20.728,0,37.591-16.864,37.591-37.592V37.591C463.698,16.863,446.835,0,426.107,0H85.893    C65.165,0,48.302,16.863,48.302,37.591v436.817c0,20.728,16.863,37.592,37.591,37.592h268.162c4.142,0,7.5-3.358,7.5-7.5    s-3.358-7.5-7.5-7.5H85.893c-12.457,0-22.591-10.135-22.591-22.592V37.591C63.302,25.134,73.436,15,85.893,15h340.214    c12.457,0,22.591,10.134,22.591,22.591v436.817c0,12.457-10.134,22.592-22.591,22.592h-42.052c-4.142,0-7.5,3.358-7.5,7.5    S379.913,512,384.055,512z"/>
		<path d="M423.698,167.266V64.733c0-13.638-11.096-24.733-24.734-24.733H180.05c-4.142,0-7.5,3.358-7.5,7.5s3.358,7.5,7.5,7.5    h218.914c5.367,0,9.734,4.366,9.734,9.733v102.532c0,5.368-4.367,9.734-9.734,9.734H113.035c-5.367,0-9.734-4.367-9.734-9.734    V64.733c0-5.367,4.367-9.733,9.734-9.733h37.015c4.142,0,7.5-3.358,7.5-7.5s-3.358-7.5-7.5-7.5h-37.015    c-13.638,0-24.734,11.095-24.734,24.733v102.532c0,13.639,11.096,24.734,24.734,24.734h285.929    C412.602,192,423.698,180.904,423.698,167.266z"/>
		<path d="M180.636,119.496v-14.997c0-4.142-3.358-7.5-7.5-7.5s-7.5,3.358-7.5,7.5v14.997c0,4.142,3.358,7.5,7.5,7.5    S180.636,123.638,180.636,119.496z"/>
		<path d="M346.363,119.496v-14.997c0-4.142-3.358-7.5-7.5-7.5s-7.5,3.358-7.5,7.5v14.997c0,4.142,3.358,7.5,7.5,7.5    S346.363,123.638,346.363,119.496z"/>
		<path d="M256,135c10.136,0,19.648-4.232,26.099-11.613c2.726-3.119,2.408-7.856-0.711-10.583    c-3.118-2.726-7.856-2.408-10.583,0.711C267.203,117.637,261.806,120,256,120s-11.203-2.363-14.805-6.484    c-2.726-3.119-7.464-3.437-10.583-0.711s-3.437,7.464-0.711,10.583C236.352,130.768,245.865,135,256,135z"/>
		<path d="M237.685,238.817c0-11.82-9.616-21.436-21.436-21.436h-91.864c-11.82,0-21.436,9.616-21.436,21.436v70.926    c0,11.82,9.616,21.436,21.436,21.436h91.864c11.82,0,21.436-9.616,21.436-21.436V238.817z M222.685,309.743    c0,3.549-2.887,6.436-6.436,6.436h-91.864c-3.549,0-6.436-2.887-6.436-6.436v-70.926c0-3.549,2.887-6.436,6.436-6.436h91.864    c3.549,0,6.436,2.887,6.436,6.436V309.743z"/>
		<path d="M191.59,265.81h-12.804v-12.804c0-3.201-3.334-6.402-8.402-6.402c-4.802,0-8.536,3.201-8.536,6.402v12.804h-12.938    c-3.734,0-6.269,3.734-6.269,8.536c0,5.068,2.534,8.403,6.269,8.403h12.938v12.938c0,3.734,3.734,6.269,8.536,6.269    c5.068,0,8.402-2.534,8.402-6.269V282.75h12.804c3.201,0,6.402-3.335,6.402-8.403C197.992,269.544,194.791,265.81,191.59,265.81z"/>
		<path d="M295.751,217.381c-11.82,0-21.437,9.616-21.437,21.436v70.926c0,11.82,9.616,21.436,21.437,21.436h91.864    c11.82,0,21.437-9.616,21.437-21.436v-70.926c0-11.82-9.616-21.436-21.437-21.436H295.751z M394.052,238.817v70.926    c0,3.549-2.887,6.436-6.437,6.436h-91.864c-3.549,0-6.437-2.887-6.437-6.436v-70.926c0-3.549,2.887-6.436,6.437-6.436h91.864    C391.164,232.381,394.052,235.268,394.052,238.817z"/>
		<path d="M358.956,265.81h-34.679c-3.734,0-6.269,3.734-6.269,8.536c0,5.068,2.534,8.403,6.269,8.403h34.679    c3.201,0,6.401-3.335,6.401-8.403C365.357,269.544,362.157,265.81,358.956,265.81z"/>
		<path d="M216.249,360.611h-91.864c-11.82,0-21.436,9.616-21.436,21.436v70.926c0,11.82,9.616,21.436,21.436,21.436h91.864    c11.82,0,21.436-9.616,21.436-21.436v-70.926C237.685,370.227,228.069,360.611,216.249,360.611z M222.685,452.973    c0,3.549-2.887,6.436-6.436,6.436h-91.864c-3.549,0-6.436-2.887-6.436-6.436v-70.926c0-3.549,2.887-6.436,6.436-6.436h91.864    c3.549,0,6.436,2.887,6.436,6.436V452.973z"/>
		<path d="M182.39,416.823l11.788-15.679c0.801-1.145,1.144-1.945,1.144-2.861c0-4.005-7.667-8.926-11.787-8.926    c-1.259,0-3.09,0.457-4.005,1.945l-9.27,14.877l-9.155-14.991c-1.03-1.717-3.09-1.831-3.776-1.831    c-4.578,0-12.016,4.921-12.016,8.926c0,1.145,0.687,2.289,1.144,2.861l11.673,15.563l-12.932,17.167    c-0.572,0.801-1.03,1.945-1.03,2.975c0,4.12,7.782,8.813,11.444,8.813c1.259,0,3.319-0.572,4.234-1.831l10.414-15.793    l10.529,15.793c0.916,1.373,2.632,1.831,4.005,1.831c4.692,0,11.673-5.035,11.673-8.813c0-1.144-0.572-2.402-1.03-2.975    L182.39,416.823z"/>
		<path d="M295.751,474.409h91.864c11.82,0,21.437-9.616,21.437-21.436v-70.926c0-11.82-9.616-21.436-21.437-21.436h-91.864    c-11.82,0-21.437,9.616-21.437,21.436v70.926C274.315,464.792,283.931,474.409,295.751,474.409z M289.315,382.047    c0-3.549,2.887-6.436,6.437-6.436h91.864c3.549,0,6.437,2.887,6.437,6.436v70.926c0,3.549-2.887,6.436-6.437,6.436h-91.864    c-3.549,0-6.437-2.887-6.437-6.436V382.047z"/>
		<path d="M324.278,439.517h34.678c3.201,0,6.402-3.334,6.402-8.402c0-4.802-3.201-8.536-6.402-8.536h-34.678    c-3.735,0-6.27,3.734-6.27,8.536C318.008,436.183,320.542,439.517,324.278,439.517z"/>
		<path d="M324.278,412.441h34.678c3.201,0,6.402-3.334,6.402-8.402c0-4.802-3.201-8.536-6.402-8.536h-34.678    c-3.735,0-6.27,3.734-6.27,8.536C318.008,409.107,320.542,412.441,324.278,412.441z"/>
	</g>
</g>















</svg>
